<svg viewBox="0 0 603.48 321.29" style="display: block;">
  <defs>
    <style>
      svg {
        fill: #f08d00;
        width: 50%;
        margin: 14% auto;
      }

      .a {
        fill: #fff
      }

      .b,
      .c {
        fill: #
      }
    </style>
  </defs>
  <path class="a" d="M217.84 31.74h194.75V182.7H217.84z"></path>
  <path class="b" d="M460.77 82.09q-.17-9-1.42-22.87a208.74 208.74 0 0 0-3.6-24.71 38.93 38.93 0 0 0-11.65-20.6 35.62 35.62 0 0 0-20.85-9.72Q386.05 0 310.84 0T198.43 4.19a35.29 35.29 0 0 0-20.78 9.72 39.19 39.19 0 0 0-11.56 20.6 186.51 186.51 0 0 0-3.77 24.71q-1.24 13.83-1.42 22.87t-.17 25.13q0 16.08.17 25.13t1.43 22.86a204.56 204.56 0 0 0 3.6 24.72 38.84 38.84 0 0 0 11.64 20.6 35.74 35.74 0 0 0 20.86 9.72q37.18 4.18 112.41 4.19t112.41-4.19a35.33 35.33 0 0 0 20.77-9.72 39.19 39.19 0 0 0 11.56-20.6 186.42 186.42 0 0 0 3.77-24.72q1.24-13.86 1.42-22.86t.17-25.13q0-16.08-.17-25.13zm-90.63 34.18l-85.77 53.6a9.54 9.54 0 0 1-5.7 1.68 11.65 11.65 0 0 1-5.19-1.34 10 10 0 0 1-5.53-9.38V53.61a10.69 10.69 0 0 1 16.42-9l85.77 53.61q5 2.83 5 9t-5 9.05z"></path>
  <path class="c" d="M102.23 108.59l-10.33 4.86a141 141 0 0 0-49.92 62.37c-7.88 19.2-9 33.6-9 34.15a7.475 7.475 0 1 0 14.91 1.09v-.05c.08-1.07 1.38-14.23 8.59-31.14a126.14 126.14 0 0 1 44-54.18"></path>
  <path class="c" d="M110.96 147.56l22.69-37.59a5.22 5.22 0 0 0-3-7.45l-42.3-11.69c-3-.84-6.87-1-7.45 3 .74 6.29 9.29 10.81 16 27.56 5.83 14.64 3.9 27 6.64 29.17 2.39 3.21 5.8-.31 7.42-3z"></path>
  <rect class="b" y="235.74" width="603.48" height="85.55" rx="12"></rect>
  <path d="M106.1 262.52H91.52v39.65h-9.8v-39.65H67.34v-7.94h38.76zm21.65 39.65a10.23 10.23 0 0 1-.95-3.17 11.42 11.42 0 0 1-8.92 3.82 12.55 12.55 0 0 1-8.62-3 9.68 9.68 0 0 1-3.41-7.58 10 10 0 0 1 4.16-8.63q4.17-3 12-3h4.35v-2a5.81 5.81 0 0 0-1.26-3.92 4.93 4.93 0 0 0-4-1.48 5.68 5.68 0 0 0-3.75 1.15 3.89 3.89 0 0 0-1.35 3.14h-9.35a9.45 9.45 0 0 1 1.9-5.69 12.52 12.52 0 0 1 5.36-4.1 19.55 19.55 0 0 1 7.74-1.56q6.53 0 10.37 3.28t3.84 9.24V294q0 5 1.41 7.61v.56zm-7.82-6.57a8.15 8.15 0 0 0 3.86-.93 6.16 6.16 0 0 0 2.62-2.5v-6.08h-3.53q-7.09 0-7.55 4.9v.56a3.77 3.77 0 0 0 1.25 2.9 4.77 4.77 0 0 0 3.35 1.15zm56.72-10.79q0 8.18-3.71 13.09a11.89 11.89 0 0 1-10 4.92 11 11 0 0 1-8.66-3.72v16.67h-9.45v-49h8.76l.33 3.47a11.09 11.09 0 0 1 9-4.12 12 12 0 0 1 10.16 4.84q3.57 4.86 3.57 13.39zm-9.45-.68q0-4.93-1.75-7.62a5.68 5.68 0 0 0-5.08-2.68q-4.44 0-6.11 3.4v14.48q1.72 3.5 6.18 3.5 6.77 0 6.76-11.08zm69.8-21.61h-14.58v39.65h-9.77v-39.65h-14.42v-7.94H237zm-1.63 21.64a21 21 0 0 1 2-9.38 14.84 14.84 0 0 1 5.83-6.38 17.07 17.07 0 0 1 8.84-2.25 16.11 16.11 0 0 1 11.69 4.38q4.53 4.38 5.05 11.9l.06 2.42q0 8.13-4.54 13.05t-12.19 4.92q-7.65 0-12.21-4.9t-4.56-13.34zm9.45.67q0 5 1.89 7.71a6.81 6.81 0 0 0 10.79 0c1.28-1.76 1.93-4.56 1.93-8.43 0-3.29-.65-5.85-1.93-7.66a6.28 6.28 0 0 0-5.43-2.71 6.17 6.17 0 0 0-5.36 2.7c-1.26 1.83-1.89 4.61-1.89 8.39zm68.13-.08h-7.82v17.42h-9.8v-47.59h17.68q8.43 0 13 3.76t4.64 10.62a14.68 14.68 0 0 1-2.11 8.12 14.38 14.38 0 0 1-6.39 5.18l10.29 19.45v.46h-10.57zm-7.82-7.95h7.91a8.09 8.09 0 0 0 5.72-1.87 6.73 6.73 0 0 0 2-5.18 7.22 7.22 0 0 0-1.91-5.3c-1.28-1.29-3.23-1.93-5.87-1.93h-7.88zm50.25 26.02q-7.78 0-12.67-4.77t-4.88-12.7v-.92a21.41 21.41 0 0 1 2.05-9.53 15.18 15.18 0 0 1 5.84-6.47 16.43 16.43 0 0 1 8.61-2.27q7.26 0 11.42 4.58t4.17 13v3.86H347.4a8.8 8.8 0 0 0 2.76 5.55 8.36 8.36 0 0 0 5.84 2.1 10.19 10.19 0 0 0 8.53-4l4.64 5.2a14.21 14.21 0 0 1-5.75 4.69 18.91 18.91 0 0 1-8.04 1.68zm-1.08-29.05a5.88 5.88 0 0 0-4.56 1.9 9.87 9.87 0 0 0-2.24 5.45h13.15v-.77a7 7 0 0 0-1.7-4.87 6.09 6.09 0 0 0-4.65-1.71zm41.81 18.63a3 3 0 0 0-1.72-2.73 19.21 19.21 0 0 0-5.5-1.78q-12.63-2.66-12.62-10.73a9.72 9.72 0 0 1 3.91-7.86q3.9-3.15 10.21-3.15 6.74 0 10.77 3.17a10 10 0 0 1 4 8.24h-9.41a4.58 4.58 0 0 0-1.31-3.35 5.49 5.49 0 0 0-4.08-1.33 5.67 5.67 0 0 0-3.7 1.08 3.41 3.41 0 0 0-1.3 2.75 2.91 2.91 0 0 0 1.48 2.53 15.43 15.43 0 0 0 5 1.67 41.07 41.07 0 0 1 6 1.58q7.48 2.75 7.48 9.51a9.21 9.21 0 0 1-4.15 7.83q-4.14 3-10.72 3a18.81 18.81 0 0 1-7.89-1.58 13.3 13.3 0 0 1-5.41-4.35 10.08 10.08 0 0 1-2-6h8.95a4.93 4.93 0 0 0 1.87 3.86 7.33 7.33 0 0 0 4.64 1.34 6.81 6.81 0 0 0 4.1-1 3.18 3.18 0 0 0 1.4-2.7zm38.12 6.17a11.84 11.84 0 0 1-9.68 4.25q-5.68 0-8.68-3.27t-3.05-9.57V266.8h9.44v22.88c0 3.68 1.68 5.53 5 5.53 3.2 0 5.4-1.12 6.6-3.34V266.8h9.48v35.37h-8.89zm26.8-31.77l.3 4a12.42 12.42 0 0 1 10.16-4.61q6.84 0 9.38 5.39a12.17 12.17 0 0 1 10.63-5.39c3.83 0 6.69 1.12 8.56 3.35s2.81 5.59 2.81 10.08v22.59h-9.48v-22.59a6.77 6.77 0 0 0-1.17-4.4c-.79-.93-2.17-1.39-4.15-1.39a5.9 5.9 0 0 0-5.89 4v24.29h-9.44v-22.47a6.65 6.65 0 0 0-1.21-4.45c-.81-.91-2.18-1.37-4.12-1.37a6.13 6.13 0 0 0-5.82 3.33v25h-9.44V266.8zm67.05 36.02q-7.78 0-12.67-4.77t-4.88-12.7v-.92a21.28 21.28 0 0 1 2.06-9.53 15.09 15.09 0 0 1 5.83-6.47 16.43 16.43 0 0 1 8.61-2.27q7.26 0 11.43 4.58t4.16 13v3.86H520.1a8.76 8.76 0 0 0 2.77 5.55 8.31 8.31 0 0 0 5.83 2.1 10.19 10.19 0 0 0 8.53-4l4.64 5.2a14.21 14.21 0 0 1-5.75 4.69 18.91 18.91 0 0 1-8.04 1.68zM527 273.77a5.91 5.91 0 0 0-4.56 1.9 9.87 9.87 0 0 0-2.24 5.45h13.14v-.77a7 7 0 0 0-1.7-4.87 6.09 6.09 0 0 0-4.64-1.71z" fill="#181818"></path>
  <path class="a" d="M104.43 261.05H89.85v39.65h-9.8v-39.65h-14.4v-7.94h38.76zm21.65 39.65a10.23 10.23 0 0 1-1-3.17 11.45 11.45 0 0 1-8.92 3.82 12.55 12.55 0 0 1-8.62-3 9.68 9.68 0 0 1-3.41-7.58 10 10 0 0 1 4.16-8.63q4.17-3 12-3h4.35v-2a5.82 5.82 0 0 0-1.26-3.92 5 5 0 0 0-4-1.47 5.62 5.62 0 0 0-3.75 1.15 3.87 3.87 0 0 0-1.35 3.13h-9.45a9.44 9.44 0 0 1 1.9-5.68 12.53 12.53 0 0 1 5.36-4.11 19.55 19.55 0 0 1 7.78-1.48q6.53 0 10.37 3.28t3.84 9.24v15.32q0 5 1.41 7.62v.56zm-7.82-6.57a8 8 0 0 0 3.86-.94 6.1 6.1 0 0 0 2.62-2.5v-6.08h-3.53q-7.09 0-7.55 4.91v.55a3.77 3.77 0 0 0 1.25 2.91 4.77 4.77 0 0 0 3.35 1.15zm56.72-10.78q0 8.17-3.71 13.09a11.89 11.89 0 0 1-10 4.92 11 11 0 0 1-8.66-3.73v16.67h-9.45v-48.95h8.76l.33 3.47a11.09 11.09 0 0 1 9-4.12 12 12 0 0 1 10.16 4.83q3.63 4.84 3.63 13.34zm-9.45-.69c0-3.29-.58-5.82-1.75-7.61a5.68 5.68 0 0 0-5.08-2.68q-4.44 0-6.11 3.4v14.48q1.73 3.5 6.18 3.49 6.77-.01 6.76-11.09zm69.8-21.61h-14.58v39.65h-9.8v-39.65h-14.38v-7.94h38.76zm-1.63 21.64a21 21 0 0 1 2-9.38 14.84 14.84 0 0 1 5.83-6.38 17.07 17.07 0 0 1 8.84-2.25 16.11 16.11 0 0 1 11.69 4.38q4.53 4.38 5.05 11.89l.06 2.42q0 8.14-4.54 13.06t-12.16 4.92q-7.65 0-12.21-4.9t-4.56-13.34zm9.45.67q0 5 1.89 7.71a6.82 6.82 0 0 0 10.79 0c1.28-1.76 1.93-4.57 1.93-8.43 0-3.3-.65-5.85-1.93-7.66a6.29 6.29 0 0 0-5.43-2.72 6.17 6.17 0 0 0-5.36 2.7q-1.89 2.73-1.89 8.39zm68.13-.09h-7.82v17.43h-9.81v-47.59h17.68q8.43 0 13 3.76t4.58 10.62a14.7 14.7 0 0 1-2.11 8.12 14.38 14.38 0 0 1-6.39 5.18l10.29 19.45v.46h-10.5zm-7.82-7.92h7.91a8.05 8.05 0 0 0 5.72-1.88 6.72 6.72 0 0 0 2-5.18 7.19 7.19 0 0 0-1.91-5.29c-1.28-1.29-3.23-1.93-5.87-1.93h-7.88zm50.25 26q-7.79 0-12.67-4.77t-4.88-12.72v-.91a21.41 21.41 0 0 1 2.05-9.53 15.12 15.12 0 0 1 5.84-6.47 16.33 16.33 0 0 1 8.61-2.27q7.26 0 11.42 4.57t4.17 13v3.86h-22.52a8.8 8.8 0 0 0 2.76 5.55 8.35 8.35 0 0 0 5.84 2.09 10.18 10.18 0 0 0 8.53-3.95l4.64 5.2a14.29 14.29 0 0 1-5.75 4.69 18.91 18.91 0 0 1-8.04 1.66zm-1.06-29.06a5.89 5.89 0 0 0-4.56 1.91 9.84 9.84 0 0 0-2.24 5.45h13.14v-.76a7 7 0 0 0-1.7-4.87 6.09 6.09 0 0 0-4.64-1.73zm41.79 18.63a3 3 0 0 0-1.72-2.73 19.86 19.86 0 0 0-5.5-1.78q-12.63-2.64-12.62-10.72a9.7 9.7 0 0 1 3.91-7.86q3.9-3.15 10.21-3.15 6.74 0 10.77 3.17a10 10 0 0 1 4 8.23h-9.45a4.59 4.59 0 0 0-1.31-3.35 5.53 5.53 0 0 0-4.08-1.32 5.67 5.67 0 0 0-3.7 1.08 3.4 3.4 0 0 0-1.3 2.74 2.92 2.92 0 0 0 1.48 2.54 15.23 15.23 0 0 0 5 1.66 41 41 0 0 1 5.95 1.59q7.49 2.74 7.48 9.51a9.21 9.21 0 0 1-4.15 7.83q-4.14 3-10.72 3a18.65 18.65 0 0 1-7.89-1.59 13.2 13.2 0 0 1-5.41-4.34 10.08 10.08 0 0 1-2-6h9a4.93 4.93 0 0 0 1.87 3.86 7.4 7.4 0 0 0 4.64 1.34 6.81 6.81 0 0 0 4.1-1 3.21 3.21 0 0 0 1.44-2.71zm38.12 6.18a11.87 11.87 0 0 1-9.68 4.25q-5.69 0-8.68-3.27t-3.05-9.58v-23.15h9.44v22.87q0 5.53 5 5.53 4.8 0 6.6-3.33v-25.07h9.48v35.37h-8.89zm26.8-31.75l.3 4a12.39 12.39 0 0 1 10.16-4.61q6.84 0 9.38 5.39a12.15 12.15 0 0 1 10.63-5.39c3.83 0 6.69 1.11 8.56 3.35s2.81 5.59 2.81 10.08v22.59h-9.48v-22.62a6.74 6.74 0 0 0-1.17-4.39c-.79-.93-2.17-1.39-4.15-1.39a5.9 5.9 0 0 0-5.89 4.05v24.29h-9.44v-22.52a6.65 6.65 0 0 0-1.21-4.45c-.81-.91-2.18-1.37-4.12-1.37a6.13 6.13 0 0 0-5.82 3.33v25h-9.44v-35.34zm67.05 36q-7.78 0-12.67-4.77t-4.88-12.72v-.91a21.28 21.28 0 0 1 2.06-9.53 15 15 0 0 1 5.83-6.47 16.33 16.33 0 0 1 8.61-2.27q7.26 0 11.43 4.57t4.16 13v3.86h-22.52a8.76 8.76 0 0 0 2.77 5.55 8.31 8.31 0 0 0 5.83 2.09 10.18 10.18 0 0 0 8.53-3.95l4.64 5.2a14.29 14.29 0 0 1-5.75 4.69 18.91 18.91 0 0 1-8.04 1.66zm-1.08-29.06a5.92 5.92 0 0 0-4.56 1.91 9.84 9.84 0 0 0-2.24 5.45h13.12v-.76a7 7 0 0 0-1.7-4.87 6.09 6.09 0 0 0-4.62-1.73z"></path>
</svg>