<svg xmlns="http://www.w3.org/2000/svg" viewBox="0 0 703.32 703.32"><circle cx="351.66" cy="351.66" r="351.66" fill="#ff0060" opacity=".9"/><path d="M114.33 377.21q-.86 11.75-8.67 18.49-7.81 6.74-20.62 6.75-14 0-22-9.42t-8-25.87v-4.45a43.56 43.56 0 013.7-18.49 27.76 27.76 0 0110.57-12.27 29.61 29.61 0 0116-4.27q12.6 0 20.29 6.74 7.69 6.74 8.9 19h-15q-.56-7.05-3.93-10.22-3.37-3.17-10.27-3.18-7.5 0-11.22 5.37-3.72 5.37-3.82 16.67v5.5q0 11.81 3.57 17.25 3.57 5.44 11.27 5.44 6.94 0 10.37-3.17 3.43-3.17 3.93-9.82zm24.14 24.24h-14.49v-76.77h14.49zm11.8-68.08a7.1 7.1 0 012.17-5.34 9.37 9.37 0 0111.82 0 7.63 7.63 0 010 10.74 9.27 9.27 0 01-11.75 0 7.1 7.1 0 01-2.24-5.4zm15.34 68.08h-14.49v-54.08h14.49zM200 390.8a9.5 9.5 0 006.5-2.19 7.72 7.72 0 002.6-5.85h13.54a18.48 18.48 0 01-3 10.07 19.77 19.77 0 01-8.07 7.1 25.28 25.28 0 01-11.32 2.52q-11.59 0-18.29-7.37-6.7-7.37-6.7-20.37v-.95q0-12.49 6.65-19.94 6.65-7.45 18.24-7.45 10.16 0 16.27 5.77 6.11 5.77 6.22 15.37H209.1a9.94 9.94 0 00-2.6-6.86 9.68 9.68 0 00-14.22 1q-2.58 3.69-2.57 11.94v1.51q0 8.35 2.54 12c1.68 2.49 4.29 3.7 7.75 3.7zm50.53-11.04l-5.19 5.2v16.49h-14.41v-76.77h14.45v42.53l2.79-3.6 13.85-16.24h17.34l-19.54 22.54 21.24 31.54h-16.63zm120.71 21.69h-15v-31.19h-29.23v31.19h-15v-72.77h15v29.49h29.24v-29.49h15zm37.04 1q-11.89 0-19.37-7.3t-7.47-19.44v-1.4a32.66 32.66 0 013.15-14.57 23.14 23.14 0 018.92-9.9 25.1 25.1 0 0113.17-3.47q11.1 0 17.47 7 6.37 7 6.37 19.84v5.87h-34.44a13.47 13.47 0 004.23 8.5 12.77 12.77 0 008.92 3.19q8.34 0 13.05-6l7.09 7.94a21.76 21.76 0 01-8.79 7.18 29 29 0 01-12.3 2.56zm-1.65-44.43a9 9 0 00-7 2.91q-2.69 2.91-3.43 8.33h20.1v-1.18c-.07-3.22-.94-5.7-2.6-7.46s-4.01-2.6-7.07-2.6zm62.48 2.89a40.29 40.29 0 00-5.2-.39q-8.21 0-10.75 5.54v35.39h-14.44v-54.08h13.64l.4 6.45q4.35-7.46 12.05-7.45a15.25 15.25 0 014.5.65zM500 402.45q-11.9 0-19.37-7.3-7.47-7.3-7.47-19.44v-1.4a32.66 32.66 0 013.15-14.57 23.08 23.08 0 018.92-9.9 25.1 25.1 0 0113.17-3.47q11.1 0 17.47 7 6.37 7 6.37 19.84v5.87H487.8a13.47 13.47 0 004.23 8.5 12.75 12.75 0 008.92 3.19q8.34 0 13-6l7.1 7.94a21.72 21.72 0 01-8.8 7.18 28.92 28.92 0 01-12.25 2.56zm-1.65-44.43a9 9 0 00-7 2.91q-2.68 2.91-3.43 8.33h20.09v-1.18c-.06-3.22-.93-5.7-2.59-7.46s-4.01-2.6-7.07-2.6zm110.31-17.2h-22.29v60.63h-15v-60.63h-22v-12.14h59.28zm-5.05 33.09a32 32 0 013.1-14.34 22.72 22.72 0 018.92-9.75 26 26 0 0113.52-3.45q10.95 0 17.87 6.7 6.92 6.7 7.72 18.19l.1 3.7q0 12.45-6.94 20-6.94 7.55-18.65 7.52-11.7 0-18.67-7.5-6.97-7.5-7-20.39zm14.45 1c0 5.13 1 9.07 2.89 11.78a10.42 10.42 0 0016.5.05q2.94-4 3-12.89 0-7.55-3-11.71a9.59 9.59 0 00-8.3-4.15 9.43 9.43 0 00-8.2 4.13q-2.89 4.16-2.89 12.82zM103.39 486.7v25.65h-15v-72.78h28.39a32.82 32.82 0 0114.42 3 22.09 22.09 0 019.57 8.52 23.77 23.77 0 013.35 12.57q0 10.69-7.32 16.87-7.32 6.18-20.27 6.17zm0-12.14h13.39q6 0 9.07-2.8c2.08-1.87 3.13-4.53 3.13-8a12 12 0 00-3.15-8.68 11.77 11.77 0 00-8.7-3.39h-13.74zm65.32 37.79h-14.49v-76.78h14.49zm43.22 0a16 16 0 01-1.45-4.85 17.48 17.48 0 01-13.65 5.85 19.22 19.22 0 01-13.17-4.6 14.8 14.8 0 01-5.22-11.6q0-8.6 6.37-13.19t18.42-4.65h6.7v-3.1a8.88 8.88 0 00-1.93-6q-1.92-2.25-6.07-2.25a8.58 8.58 0 00-5.72 1.75 5.94 5.94 0 00-2.08 4.8h-14.47a14.49 14.49 0 012.9-8.7 19.21 19.21 0 018.19-6.27 29.85 29.85 0 0111.9-2.28q10 0 15.87 5 5.87 5 5.87 14.12v23.44q.06 7.69 2.15 11.65v.85zm-12-10a12.46 12.46 0 005.9-1.43 9.37 9.37 0 004-3.82v-9.3h-5.4q-10.84 0-11.55 7.5l.05.78a5.81 5.81 0 001.9 4.45 7.37 7.37 0 005.17 1.77zm55-10.45l10-33.64h15.49l-21.74 62.48-1.2 2.85q-4.85 10.59-16 10.6a22.82 22.82 0 01-6.4-1v-10.9h2.2a11.91 11.91 0 006.12-1.25 8.19 8.19 0 003.18-4.15l1.69-4.44-18.94-54.24h15.6zm95.37 1.35a7.7 7.7 0 00-3-6.52q-3-2.28-10.8-4.8a76.7 76.7 0 01-12.34-5q-12.41-6.7-12.4-18.05a17.57 17.57 0 013.33-10.52 21.61 21.61 0 019.54-7.22 36 36 0 0114-2.6 32.63 32.63 0 0113.9 2.83 22.15 22.15 0 019.47 8 20.84 20.84 0 013.34 11.71h-15a9.81 9.81 0 00-3.15-7.77q-3.15-2.77-8.85-2.77-5.49 0-8.54 2.32a7.31 7.31 0 00-3.05 6.12q0 3.56 3.57 5.95a40.34 40.34 0 0010.52 4.5q12.79 3.85 18.65 9.55a19 19 0 015.84 14.19q0 9.45-7.14 14.82-7.14 5.37-19.26 5.36a37.16 37.16 0 01-15.29-3.08 24.19 24.19 0 01-10.52-8.42 21.56 21.56 0 01-3.63-12.4h15.05q0 12 14.39 12.05 5.36 0 8.35-2.18a7.06 7.06 0 003.02-6.07zm21.99-8.44a32 32 0 013.1-14.35 22.72 22.72 0 018.92-9.75 26 26 0 0113.52-3.45q11 0 17.87 6.7 6.87 6.7 7.72 18.2l.1 3.69q0 12.45-6.94 20-6.94 7.55-18.65 7.5-11.69 0-18.67-7.5-6.98-7.5-7-20.4zm14.45 1q0 7.71 2.9 11.79a10.41 10.41 0 0016.49 0q3-4 2.95-12.89 0-7.56-2.95-11.71a9.59 9.59 0 00-8.3-4.16 9.42 9.42 0 00-8.19 4.13q-2.91 4.2-2.9 12.86zm78.07 21.04q-5.36 6.5-14.8 6.5-8.68 0-13.27-5t-4.67-14.65v-35.44h14.45v35q0 8.46 7.69 8.46 7.35 0 10.1-5.11v-38.35h14.49v54.09h-13.59zM503 458.26l.45 6.25a18.87 18.87 0 0115.54-7.25q8.6 0 12.8 5.05 4.2 5.05 4.29 15.1v34.94h-14.44v-34.59c0-3.07-.67-5.29-2-6.68s-3.55-2.07-6.65-2.07a9.92 9.92 0 00-9.14 5.2v38.14H489.4v-54.09zm41.78 26.64q0-12.63 5.67-20.14t15.52-7.5a16.57 16.57 0 0113.05 5.9v-27.59h14.49v76.78h-13l-.7-5.75a17 17 0 01-13.9 6.75 18.36 18.36 0 01-15.32-7.53q-5.8-7.51-5.81-20.92zm14.45 1.08q0 7.61 2.64 11.66a8.63 8.63 0 007.7 4.06q6.71 0 9.45-5.66v-21.37q-2.7-5.65-9.35-5.66-10.44 0-10.44 16.97zm54.18 11.92a8.1 8.1 0 015.87 2.15 7.86 7.86 0 010 10.95 9 9 0 01-11.7 0 7.27 7.27 0 01-2.22-5.45 7.36 7.36 0 012.22-5.48 8 8 0 015.83-2.17zm6-7.9h-12l-1.7-50.43h15.4z" fill="#241933"/><path d="M112.33 374.36q-.86 11.75-8.67 18.5t-20.62 6.74q-14 0-22-9.42t-8-25.86v-4.45a43.76 43.76 0 013.7-18.5 27.76 27.76 0 0110.53-12.29 29.61 29.61 0 0116-4.27q12.6 0 20.3 6.75 7.7 6.75 8.89 18.94h-15q-.56-7.05-3.93-10.22-3.37-3.17-10.27-3.17-7.5 0-11.22 5.37-3.72 5.37-3.82 16.67v5.5q0 11.79 3.57 17.24 3.57 5.45 11.27 5.45 6.94 0 10.37-3.18c2.29-2.11 3.59-5.39 3.93-9.82zm24.14 24.24h-14.49v-76.77h14.49zm11.8-68.07a7.11 7.11 0 012.17-5.35 9.37 9.37 0 0111.82 0 7.64 7.64 0 010 10.75 9.27 9.27 0 01-11.75 0 7.1 7.1 0 01-2.24-5.4zm15.34 68.07h-14.49v-54.08h14.49zM198 387.96a9.46 9.46 0 006.5-2.2 7.72 7.72 0 002.6-5.85h13.54a18.53 18.53 0 01-3 10.07 19.79 19.79 0 01-8.08 7.1 25.28 25.28 0 01-11.32 2.52q-11.59 0-18.29-7.37-6.7-7.37-6.7-20.37v-.95q0-12.49 6.65-19.94 6.65-7.45 18.24-7.45 10.16 0 16.27 5.78 6.11 5.78 6.22 15.37H207.1a9.92 9.92 0 00-2.6-6.86 9.66 9.66 0 00-14.22 1q-2.58 3.68-2.57 11.94v1.5q0 8.35 2.55 12c1.67 2.49 4.28 3.71 7.74 3.71zm50.53-11.05l-5.19 5.2v16.49h-14.41v-76.77h14.45v42.54l2.8-3.6 13.84-16.25h17.34l-19.58 22.56 21.24 31.53h-16.59zm120.71 21.69h-15v-31.18h-29.23v31.18h-15v-72.77h15v29.49h29.24v-29.49h15zm37.04 1q-11.89 0-19.37-7.29t-7.47-19.45v-1.4a32.69 32.69 0 013.15-14.57 23.06 23.06 0 018.92-9.89 25 25 0 0113.17-3.48q11.1 0 17.47 7 6.37 7 6.37 19.84v5.9h-34.44a13.44 13.44 0 004.23 8.5 12.77 12.77 0 008.92 3.2q8.34 0 13.05-6.05l7.09 7.95a21.75 21.75 0 01-8.79 7.17 28.82 28.82 0 01-12.3 2.57zm-1.65-44.43a9 9 0 00-7 2.91q-2.69 2.91-3.43 8.34h20.1v-1.16c-.07-3.21-.94-5.7-2.6-7.45a9.31 9.31 0 00-7.07-2.64zm62.48 2.91a38.74 38.74 0 00-5.2-.4q-8.21 0-10.75 5.55v35.38h-14.44v-54.09h13.64l.4 6.45q4.35-7.44 12.05-7.45a15.25 15.25 0 014.5.65zM498 399.6q-11.9 0-19.37-7.29-7.47-7.29-7.47-19.45v-1.4a32.69 32.69 0 013.15-14.57 23 23 0 018.92-9.89 25 25 0 0113.17-3.48q11.1 0 17.47 7 6.37 7 6.37 19.84v5.9H485.8a13.44 13.44 0 004.23 8.5 12.76 12.76 0 008.92 3.2q8.34 0 13-6.05l7.1 7.95a21.78 21.78 0 01-8.8 7.17A28.77 28.77 0 01498 399.6zm-1.65-44.43a9 9 0 00-7 2.91q-2.68 2.91-3.43 8.34h20.09v-1.16c-.06-3.21-.93-5.7-2.59-7.45a9.32 9.32 0 00-7.07-2.64zm110.31-17.19h-22.29v60.62h-15v-60.62h-22v-12.15h59.28zm-5.05 33.1a32 32 0 013.1-14.34 22.72 22.72 0 018.92-9.75 26 26 0 0113.52-3.45q10.95 0 17.87 6.7 6.92 6.7 7.72 18.19l.1 3.7q0 12.45-6.94 20-6.94 7.55-18.65 7.52-11.7 0-18.67-7.49-6.97-7.49-7-20.4zm14.45 1q0 7.71 2.89 11.79a10.42 10.42 0 0016.5.05q2.94-4 3-12.89 0-7.56-3-11.72a9.61 9.61 0 00-8.3-4.15 9.45 9.45 0 00-8.2 4.13q-2.89 4.14-2.89 12.79zM101.39 483.86v25.64h-15v-72.77h28.39a32.82 32.82 0 0114.42 3 22 22 0 019.57 8.53 23.77 23.77 0 013.35 12.57q0 10.69-7.32 16.87-7.32 6.18-20.27 6.17zm0-12.15h13.39q6 0 9.07-2.8c2.08-1.86 3.13-4.53 3.13-8a12 12 0 00-3.15-8.65q-3.15-3.3-8.7-3.4h-13.74zm65.32 37.79h-14.49v-76.77h14.49zm43.22 0a16 16 0 01-1.45-4.85 17.48 17.48 0 01-13.65 5.85 19.17 19.17 0 01-13.17-4.6 14.78 14.78 0 01-5.22-11.59q0-8.61 6.37-13.2t18.42-4.65h6.7v-3.1a8.88 8.88 0 00-1.93-6q-1.95-2.28-6.07-2.28a8.63 8.63 0 00-5.72 1.75 6 6 0 00-2.08 4.8h-14.47a14.5 14.5 0 012.9-8.69 19.12 19.12 0 018.2-6.28 29.94 29.94 0 0111.89-2.27q10 0 15.87 5 5.87 5 5.87 14.12v23.44q.06 7.71 2.15 11.65v.85zm-12-10a12.45 12.45 0 006-1.42 9.39 9.39 0 004-3.83v-9.29h-5.4q-10.84 0-11.55 7.5l-.05.85a5.79 5.79 0 001.9 4.44 7.37 7.37 0 005.17 1.7zm55-10.42l10-33.64h15.49l-21.74 62.48-1.2 2.85q-4.85 10.59-16 10.59a22.51 22.51 0 01-6.4-1v-10.91h2.2a11.91 11.91 0 006.12-1.25 8.28 8.28 0 003.18-4.15l1.69-4.45-18.94-54.23h15.6zm95.37 1.33a7.7 7.7 0 00-3-6.53q-3-2.26-10.8-4.8a76.7 76.7 0 01-12.34-5q-12.41-6.69-12.4-18a17.55 17.55 0 013.33-10.52 21.7 21.7 0 019.54-7.23 36 36 0 0114-2.59 32.78 32.78 0 0113.9 2.82 22.15 22.15 0 019.47 8 20.85 20.85 0 013.37 11.7h-15a9.83 9.83 0 00-3.15-7.78c-2.1-1.84-5-2.77-8.85-2.77s-6.51.78-8.54 2.32a7.33 7.33 0 00-3.05 6.13c0 2.36 1.19 4.35 3.57 5.95a40.38 40.38 0 0010.52 4.49q12.79 3.86 18.65 9.55a19 19 0 015.84 14.2q0 9.43-7.14 14.82-7.14 5.39-19.29 5.33a37.32 37.32 0 01-15.29-3.07 24.14 24.14 0 01-10.52-8.43 21.51 21.51 0 01-3.63-12.39h15.05q0 12 14.39 12 5.36 0 8.35-2.17a7.07 7.07 0 003.02-6.03zm21.99-8.45a32 32 0 013.1-14.35 22.75 22.75 0 018.92-9.74 26 26 0 0113.52-3.45q11 0 17.87 6.7 6.87 6.7 7.72 18.19l.11 3.7q0 12.45-7 20-7 7.55-18.6 7.49-11.69 0-18.67-7.5-6.98-7.5-7-20.39zm14.45 1q0 7.71 2.9 11.79a10.41 10.41 0 0016.49.05q3-4 2.95-12.89 0-7.56-2.95-11.71a9.59 9.59 0 00-8.3-4.16 9.42 9.42 0 00-8.19 4.13q-2.91 4.16-2.9 12.81zM462.81 504q-5.36 6.49-14.8 6.5-8.68 0-13.27-5t-4.67-14.64v-35.44h14.45v35q0 8.44 7.69 8.45 7.35 0 10.1-5.1v-38.35h14.49v54.08h-13.59zM501 455.42l.45 6.25a18.84 18.84 0 0115.54-7.25q8.6 0 12.8 5.05 4.2 5.05 4.29 15.09v34.94h-14.44v-34.59c0-3.06-.67-5.29-2-6.67s-3.55-2.08-6.65-2.08a9.94 9.94 0 00-9.14 5.2v38.14H487.4v-54.08zm41.78 26.66q0-12.64 5.67-20.14t15.52-7.5a16.57 16.57 0 0113.05 5.9v-27.61h14.5v76.77h-13.05l-.7-5.75a17 17 0 01-13.9 6.75 18.35 18.35 0 01-15.31-7.52q-5.77-7.53-5.78-20.9zm14.45 1.07q0 7.62 2.65 11.67a8.62 8.62 0 007.69 4q6.71 0 9.45-5.65v-21.35q-2.7-5.65-9.35-5.66-10.44 0-10.44 16.97zm54.18 11.93a8.1 8.1 0 015.87 2.15 7.34 7.34 0 012.22 5.5 7.26 7.26 0 01-2.22 5.45 9 9 0 01-11.7 0 7.26 7.26 0 01-2.22-5.45 7.33 7.33 0 012.22-5.47 8 8 0 015.83-2.18zm6-7.89h-12l-1.7-50.43h15.4z" fill="#fff"/><path d="M392.01 187.68a8.134 8.134 0 10-10.08 12.77 20.51 20.51 0 01-.85 32.36 7.15 7.15 0 00-1.15 10.27l.68.68a8.24 8.24 0 0011.06 1.32 36.75 36.75 0 00.34-57.39zm18.56-22.82a8.24 8.24 0 00-11.24 1.22 8.05 8.05 0 001 11.24 50.24 50.24 0 010 78 8 8 0 00-1 11.24 8.09 8.09 0 0011.24 1.36 66.09 66.09 0 000-103zm-66.07-12.43l-41.38 31.85h-20.27a9.52 9.52 0 00-9.53 9.53v45a9.52 9.52 0 009.53 9.54h20.27l41.55 31.84a11 11 0 0017.71-8.86V161.08a11.11 11.11 0 00-17.88-8.65z"/><path d="M390.32 183.81a8.12 8.12 0 10-10 12.77 20.51 20.51 0 01-.85 32.36 7.15 7.15 0 00-1.2 10.22l.68.68a8.24 8.24 0 0011.07 1.36 36.74 36.74 0 00.34-57.39zm18.61-22.82a8.24 8.24 0 00-11.24 1.2 8 8 0 001 11.24 50.24 50.24 0 010 78 8 8 0 00-1 11.24 8.09 8.09 0 0011.24 1.35 66.09 66.09 0 000-103zm-66.12-12.43l-41.38 31.85h-20.26a9.52 9.52 0 00-9.54 9.53v45a9.53 9.53 0 009.54 9.54h20.26l41.55 31.84a11 11 0 0017.71-8.86V157.25a11.11 11.11 0 00-17.88-8.69z" fill="#fff"/></svg>