<?xml version="1.0" encoding="utf-8"?>
<!-- Generator: Adobe Illustrator 25.0.0, SVG Export Plug-In . SVG Version: 6.00 Build 0)  -->
<svg version="1.1" id="Layer_1" xmlns="http://www.w3.org/2000/svg" xmlns:xlink="http://www.w3.org/1999/xlink" x="0px" y="0px"
	 viewBox="0 0 493.1 301.2" style="enable-background:new 0 0 493.1 301.2;" xml:space="preserve">
<style type="text/css">
	.st0{display:none;}
	.st1{display:inline;stroke:#000000;stroke-miterlimit:10;}
	.st2{fill:#CD181F;}
	.st3{fill:#EEEEEE;}
</style>
<g id="Layer_2_1_" class="st0">
	<rect x="-381.3" y="-46.5" class="st1" width="1273" height="365"/>
</g>
<g>
	<path class="st2" d="M355.9,25.9c0-0.1-0.1-0.3-0.1-0.4c-0.1-0.3-0.2-0.7-0.3-1c0-0.1,0-0.2-0.1-0.2c-1-3.3-1.7-4.3-1.7-4.3v0
		c-4.5-9.1-13.6-15.6-24.3-16.4C327.3,3.3,305.2,0,246.6,0l0,0l0,0c-61.8,0-83,3.6-83,3.6l0,0c-10.5,1-19.4,7.4-23.9,16.4v0
		c0,0-0.7,1-1.7,4.3c0,0.1,0,0.2-0.1,0.2c-0.1,0.3-0.2,0.6-0.3,0.9c0,0.1-0.1,0.3-0.1,0.4c-1.9,7.3-4.5,22.8-4.5,54.2c0,0,0,0,0,0
		s0,0,0,0c0,31.3,2.5,46.8,4.4,54.1c0.1,0.3,0.2,0.6,0.2,0.9c0,0.1,0,0.1,0,0.2c0.1,0.2,0.1,0.5,0.2,0.7c1,3.2,1.7,4.2,1.7,4.2v0
		c4.5,9,13.4,15.4,23.9,16.4c0.5,0.1,21.9,3.6,83,3.6l0,0l0,0c58.1,0,80.3-3.2,82.7-3.6c10.7-0.8,19.8-7.3,24.4-16.4v0
		c0,0,0.7-1,1.7-4.2c0.1-0.2,0.1-0.5,0.2-0.7c0-0.1,0-0.1,0-0.2c0.1-0.3,0.2-0.6,0.2-0.8c1.9-7.3,4.4-22.9,4.4-54.1c0,0,0,0,0,0
		c0,0,0,0,0,0C360.4,48.8,357.9,33.2,355.9,25.9z"/>
	<polygon class="st3" points="222.4,114 222.4,47.6 285.3,80.5 	"/>
</g>
<g>
	<g>
		<path class="st3" d="M460.2,214c-3.9,1.5-8.1,2.6-12.5,3.4c-10.2,1.6-21,0.6-30.2-2.9c-12.1-4.5-47.6-14.3-49.5-14.8
			c-7.8-1.7-12.7-9.4-11-17.1c0.8-3.8,3.1-7,6.3-9.1s7.1-2.8,10.9-2l9.5,2l-50.5-57.6c-2.5-2.9-3.8-6.6-3.5-10.5
			c0.2-3.8,2-7.4,4.9-9.9c6-5.3,15.1-4.6,20.4,1.3l22.3,25.4c0.6-2.9,2.2-5.6,4.6-7.6c4.8-4.2,11.5-4.6,16.7-1.7
			c0-0.1,0-0.1,0.1-0.2c0.6-3.3,2.2-6.3,4.8-8.5c5.9-5.3,15.1-4.6,20.3,1.2c0.6-2.9,2.2-5.6,4.6-7.6c6-5.3,15.1-4.6,20.4,1.3
			l33,37.7c0.1,0.2,0.2,0.3,0.3,0.5c7.8,9.8,11.6,22,10.6,34.6c-1.1,12.7-6.9,24.4-16.5,32.7C471.3,208.6,466,211.7,460.2,214z
			 M368,177.6c-0.5,0.2-1.1,0.5-1.6,0.8c-1.9,1.2-3.2,3.2-3.7,5.4c-1,4.6,1.9,9.1,6.5,10.1c0.1,0,0.1,0,0.2,0.1
			c1.5,0.4,37.5,10.3,50.1,14.9c17.5,6.5,39.1,2.9,52.5-8.8c17.5-15.3,19.7-41.4,5-59.4c-0.1-0.1-0.1-0.2-0.2-0.3l-32.7-37.4
			c-3.1-3.5-8.5-3.9-12-0.8l0,0c-3,2.7-3.8,7.1-1.8,10.7c0.8,1,6.5,7.5,7.4,8.6c1.1,1.3,1,3.1-0.3,4.2s-3.1,1-4.2-0.3l0,0l0,0
			l-14-16.1c-3.1-3.5-8.5-3.9-12-0.8c-3,2.6-3.7,7-1.9,10.4c1.4,1.7,13.9,16.2,15.2,17.7l0,0l0,0c1.1,1.3,1,3.1-0.3,4.2
			c-1.3,1.1-3.1,1-4.2-0.3L398,119.6c-3.1-3.5-8.5-3.9-12-0.8c-3.2,2.8-3.8,7.5-1.4,11.1c1.3,1.6,18.1,20.8,18.9,21.7l0,0
			c1.1,1.3,1,3.1-0.3,4.2c-1.3,1.1-3.1,1-4.2-0.3c0,0,0,0,0-0.1l-48.2-55c-3.1-3.5-8.5-3.9-12-0.8c-1.7,1.5-2.8,3.6-2.9,5.8
			s0.6,4.5,2.1,6.2l56.4,64.4c0.9,1,1,2.4,0.4,3.4c-0.7,1.1-1.9,1.7-3.2,1.4l-18.3-3.8C371.2,176.9,369.5,177,368,177.6z
			 M430.3,112.9L430.3,112.9L430.3,112.9z M384.3,130.2L384.3,130.2L384.3,130.2z M405.2,118.9L405.2,118.9L405.2,118.9z"/>
	</g>
	<g>
		
			<rect x="315.3" y="72.8" transform="matrix(0.7239 -0.6899 0.6899 0.7239 31.9539 242.8808)" class="st3" width="8.3" height="17.3"/>
		
			<rect x="342.3" y="68.3" transform="matrix(0.1991 -0.98 0.98 0.1991 210.1043 401.9534)" class="st3" width="17.3" height="8.3"/>
		
			<rect x="368.1" y="89.5" transform="matrix(0.9244 -0.3815 0.3815 0.9244 -7.2534 150.8005)" class="st3" width="17.3" height="8.3"/>
		
			<rect x="320.2" y="135.1" transform="matrix(0.4255 -0.905 0.905 0.4255 62.8746 377.6219)" class="st3" width="17.3" height="8.3"/>
		
			<rect x="300.2" y="108.5" transform="matrix(0.9884 -0.1519 0.1519 0.9884 -13.5184 48.2075)" class="st3" width="17.3" height="8.3"/>
	</g>
</g>
<g>
	<path class="st3" d="M160.7,230.5v-40H147v-7.9h36.8v7.9h-13.6v40H160.7z"/>
	<path class="st3" d="M194.2,231.1c-7.3,0-12.3-4.3-12.3-11.3c0-6.7,4.6-11,13.3-11h9.1v-3.4c0-3.7-2.2-5.8-6.2-5.8
		c-3.8,0-6,2-6.2,5h-8.6c0.3-6.2,4.3-12,15-12c8.6,0,15.1,4,15.1,12.7v25.2h-8.8V226h-0.4C202.9,228.7,199.7,231.1,194.2,231.1z
		 M204.4,218.3v-3.9h-7.1c-4.1,0-6.1,2-6.1,4.8c0,3.5,3,5.2,6,5.2C201.2,224.3,204.4,221.9,204.4,218.3z"/>
	<path class="st3" d="M232.1,225.1h-0.4v17.8h-9.3v-49.7h9.1v5.6h0.4c1.9-3.6,5.7-6,10.8-6c8.3,0,14.1,6.2,14.1,17.5v3.2
		c0,11.2-5.7,17.6-14.2,17.6C237.6,231,233.9,228.6,232.1,225.1z M247.3,213v-2.5c0-6.7-2.9-10.4-7.7-10.4c-4.9,0-8,3.9-8,10.4v2.5
		c0,6.6,3.2,10.6,8.1,10.6C244.2,223.6,247.3,219.9,247.3,213z"/>
	<path class="st3" d="M288.2,230.5v-40h-13.6v-7.9h36.8v7.9h-13.6v40H288.2z"/>
	<path class="st3" d="M343.9,210.4v2.7c0,10.9-6,18.1-17.1,18.1s-17.1-7.2-17.1-18v-2.7c0-10.3,6.1-17.9,17.1-17.9
		C337.8,192.5,343.9,200.1,343.9,210.4z M319.1,210.4v2.9c0,5.9,2.3,10.7,7.7,10.7c5.4,0,7.7-4.8,7.7-10.7v-2.9
		c0-6.1-2.4-10.7-7.7-10.7S319.1,204.3,319.1,210.4z"/>
	<path class="st3" d="M156.3,267.7c0,7.9-5.1,12-8.8,13.5l9.7,19.3h-10.6l-8.4-17.9h-8.5v17.9h-9.4v-48h19.2
		C150.9,252.5,156.3,259.2,156.3,267.7z M137.9,275.5c5.3,0,8.5-2.6,8.5-7.6c0-5.3-3.5-7.9-8.4-7.9h-8.4v15.5H137.9z"/>
	<path class="st3" d="M162.6,283.3v-3.4c0-10.9,6.7-17.4,16.5-17.4c10.2,0,16.5,6.9,16.5,17.6v3.7h-23.9v1c0,5.7,3.2,9.2,7.9,9.2
		c3.7,0,6.3-1.8,7.1-4.9h8.6c-0.9,6-5.7,11.9-15.7,11.9C169.3,301.2,162.6,294.8,162.6,283.3z M186.6,278L186.6,278
		c0-4.9-2.9-8.5-7.4-8.5c-4.5,0-7.5,3.7-7.5,8.5v0.1H186.6z"/>
	<path class="st3" d="M216.8,262.5c8.9,0,14.3,4.5,14.3,11.4h-8.2c-0.2-2.4-1.8-5-6.3-5c-3.6,0-5.9,1.7-5.9,4.4
		c0,3.7,5.4,4.3,9.6,5.1c6.9,1.2,11.9,3.6,11.9,10.5c0,7.7-6,12.2-15.9,12.2c-9.6,0-15.2-4.5-15.2-11.1h9c0.4,2.7,2.8,4.6,6.8,4.6
		c4.4,0,6.4-2.1,6.4-4.5c0-3.6-4.5-4.1-9.2-5.1c-6.7-1.4-12.1-3.9-12.1-10.8C201.9,266,209,262.5,216.8,262.5z"/>
	<path class="st3" d="M272,300.5h-9V295h-0.4c-1.2,2.9-4.6,6-10.8,6c-7.6,0-12.8-4.4-12.8-13.2v-24.6h9.2v22.2
		c0,6.2,3.5,7.8,7.1,7.8c4.1,0,7.3-2.7,7.3-7.9v-22.1h9.3V300.5z"/>
	<path class="st3" d="M281.2,263.2h9v5.3h0.5c1-2.7,4.2-5.9,9.8-5.9c5.7,0,9.2,2.6,10.4,6.4h0.4c1.2-3.2,5.1-6.4,11.4-6.4
		c7.7,0,12.2,5,12.2,12.4v25.5h-9.2v-22.9c0-4.7-2.6-7.2-6.5-7.2c-4.1,0-6.6,2.8-6.6,7.6v22.6h-8.9v-22.6c0-5.4-2.8-7.6-6.5-7.6
		c-3.6,0-6.6,2.4-6.6,7.5v22.6h-9.2V263.2z"/>
	<path class="st3" d="M342.3,283.3v-3.4c0-10.9,6.7-17.4,16.5-17.4c10.2,0,16.5,6.9,16.5,17.6v3.7h-23.9v1c0,5.7,3.2,9.2,7.9,9.2
		c3.7,0,6.3-1.8,7.1-4.9h8.6c-0.9,6-5.7,11.9-15.7,11.9C349,301.2,342.3,294.8,342.3,283.3z M366.3,278L366.3,278
		c0-4.9-2.9-8.5-7.4-8.5c-4.5,0-7.5,3.7-7.5,8.5v0.1H366.3z"/>
</g>
</svg>
<?xml version="1.0" encoding="utf-8"?>
<!-- Generator: Adobe Illustrator 25.0.0, SVG Export Plug-In . SVG Version: 6.00 Build 0)  -->
<svg version="1.1" id="Layer_1" xmlns="http://www.w3.org/2000/svg" xmlns:xlink="http://www.w3.org/1999/xlink" x="0px" y="0px"
	 viewBox="0 0 493.1 301.2" style="enable-background:new 0 0 493.1 301.2;" xml:space="preserve">
<style type="text/css">
	.st0{display:none;}
	.st1{display:inline;stroke:#000000;stroke-miterlimit:10;}
	.st2{fill:#CD181F;}
	.st3{fill:#EEEEEE;}
</style>
<g id="Layer_2_1_" class="st0">
	<rect x="-381.3" y="-46.5" class="st1" width="1273" height="365"/>
</g>
<g>
	<path class="st2" d="M355.9,25.9c0-0.1-0.1-0.3-0.1-0.4c-0.1-0.3-0.2-0.7-0.3-1c0-0.1,0-0.2-0.1-0.2c-1-3.3-1.7-4.3-1.7-4.3v0
		c-4.5-9.1-13.6-15.6-24.3-16.4C327.3,3.3,305.2,0,246.6,0l0,0l0,0c-61.8,0-83,3.6-83,3.6l0,0c-10.5,1-19.4,7.4-23.9,16.4v0
		c0,0-0.7,1-1.7,4.3c0,0.1,0,0.2-0.1,0.2c-0.1,0.3-0.2,0.6-0.3,0.9c0,0.1-0.1,0.3-0.1,0.4c-1.9,7.3-4.5,22.8-4.5,54.2c0,0,0,0,0,0
		s0,0,0,0c0,31.3,2.5,46.8,4.4,54.1c0.1,0.3,0.2,0.6,0.2,0.9c0,0.1,0,0.1,0,0.2c0.1,0.2,0.1,0.5,0.2,0.7c1,3.2,1.7,4.2,1.7,4.2v0
		c4.5,9,13.4,15.4,23.9,16.4c0.5,0.1,21.9,3.6,83,3.6l0,0l0,0c58.1,0,80.3-3.2,82.7-3.6c10.7-0.8,19.8-7.3,24.4-16.4v0
		c0,0,0.7-1,1.7-4.2c0.1-0.2,0.1-0.5,0.2-0.7c0-0.1,0-0.1,0-0.2c0.1-0.3,0.2-0.6,0.2-0.8c1.9-7.3,4.4-22.9,4.4-54.1c0,0,0,0,0,0
		c0,0,0,0,0,0C360.4,48.8,357.9,33.2,355.9,25.9z"/>
	<polygon class="st3" points="222.4,114 222.4,47.6 285.3,80.5 	"/>
</g>
<g>
	<g>
		<path class="st3" d="M460.2,214c-3.9,1.5-8.1,2.6-12.5,3.4c-10.2,1.6-21,0.6-30.2-2.9c-12.1-4.5-47.6-14.3-49.5-14.8
			c-7.8-1.7-12.7-9.4-11-17.1c0.8-3.8,3.1-7,6.3-9.1s7.1-2.8,10.9-2l9.5,2l-50.5-57.6c-2.5-2.9-3.8-6.6-3.5-10.5
			c0.2-3.8,2-7.4,4.9-9.9c6-5.3,15.1-4.6,20.4,1.3l22.3,25.4c0.6-2.9,2.2-5.6,4.6-7.6c4.8-4.2,11.5-4.6,16.7-1.7
			c0-0.1,0-0.1,0.1-0.2c0.6-3.3,2.2-6.3,4.8-8.5c5.9-5.3,15.1-4.6,20.3,1.2c0.6-2.9,2.2-5.6,4.6-7.6c6-5.3,15.1-4.6,20.4,1.3
			l33,37.7c0.1,0.2,0.2,0.3,0.3,0.5c7.8,9.8,11.6,22,10.6,34.6c-1.1,12.7-6.9,24.4-16.5,32.7C471.3,208.6,466,211.7,460.2,214z
			 M368,177.6c-0.5,0.2-1.1,0.5-1.6,0.8c-1.9,1.2-3.2,3.2-3.7,5.4c-1,4.6,1.9,9.1,6.5,10.1c0.1,0,0.1,0,0.2,0.1
			c1.5,0.4,37.5,10.3,50.1,14.9c17.5,6.5,39.1,2.9,52.5-8.8c17.5-15.3,19.7-41.4,5-59.4c-0.1-0.1-0.1-0.2-0.2-0.3l-32.7-37.4
			c-3.1-3.5-8.5-3.9-12-0.8l0,0c-3,2.7-3.8,7.1-1.8,10.7c0.8,1,6.5,7.5,7.4,8.6c1.1,1.3,1,3.1-0.3,4.2s-3.1,1-4.2-0.3l0,0l0,0
			l-14-16.1c-3.1-3.5-8.5-3.9-12-0.8c-3,2.6-3.7,7-1.9,10.4c1.4,1.7,13.9,16.2,15.2,17.7l0,0l0,0c1.1,1.3,1,3.1-0.3,4.2
			c-1.3,1.1-3.1,1-4.2-0.3L398,119.6c-3.1-3.5-8.5-3.9-12-0.8c-3.2,2.8-3.8,7.5-1.4,11.1c1.3,1.6,18.1,20.8,18.9,21.7l0,0
			c1.1,1.3,1,3.1-0.3,4.2c-1.3,1.1-3.1,1-4.2-0.3c0,0,0,0,0-0.1l-48.2-55c-3.1-3.5-8.5-3.9-12-0.8c-1.7,1.5-2.8,3.6-2.9,5.8
			s0.6,4.5,2.1,6.2l56.4,64.4c0.9,1,1,2.4,0.4,3.4c-0.7,1.1-1.9,1.7-3.2,1.4l-18.3-3.8C371.2,176.9,369.5,177,368,177.6z
			 M430.3,112.9L430.3,112.9L430.3,112.9z M384.3,130.2L384.3,130.2L384.3,130.2z M405.2,118.9L405.2,118.9L405.2,118.9z"/>
	</g>
	<g>
		
			<rect x="315.3" y="72.8" transform="matrix(0.7239 -0.6899 0.6899 0.7239 31.9539 242.8808)" class="st3" width="8.3" height="17.3"/>
		
			<rect x="342.3" y="68.3" transform="matrix(0.1991 -0.98 0.98 0.1991 210.1043 401.9534)" class="st3" width="17.3" height="8.3"/>
		
			<rect x="368.1" y="89.5" transform="matrix(0.9244 -0.3815 0.3815 0.9244 -7.2534 150.8005)" class="st3" width="17.3" height="8.3"/>
		
			<rect x="320.2" y="135.1" transform="matrix(0.4255 -0.905 0.905 0.4255 62.8746 377.6219)" class="st3" width="17.3" height="8.3"/>
		
			<rect x="300.2" y="108.5" transform="matrix(0.9884 -0.1519 0.1519 0.9884 -13.5184 48.2075)" class="st3" width="17.3" height="8.3"/>
	</g>
</g>
<g>
	<path class="st3" d="M160.7,230.5v-40H147v-7.9h36.8v7.9h-13.6v40H160.7z"/>
	<path class="st3" d="M194.2,231.1c-7.3,0-12.3-4.3-12.3-11.3c0-6.7,4.6-11,13.3-11h9.1v-3.4c0-3.7-2.2-5.8-6.2-5.8
		c-3.8,0-6,2-6.2,5h-8.6c0.3-6.2,4.3-12,15-12c8.6,0,15.1,4,15.1,12.7v25.2h-8.8V226h-0.4C202.9,228.7,199.7,231.1,194.2,231.1z
		 M204.4,218.3v-3.9h-7.1c-4.1,0-6.1,2-6.1,4.8c0,3.5,3,5.2,6,5.2C201.2,224.3,204.4,221.9,204.4,218.3z"/>
	<path class="st3" d="M232.1,225.1h-0.4v17.8h-9.3v-49.7h9.1v5.6h0.4c1.9-3.6,5.7-6,10.8-6c8.3,0,14.1,6.2,14.1,17.5v3.2
		c0,11.2-5.7,17.6-14.2,17.6C237.6,231,233.9,228.6,232.1,225.1z M247.3,213v-2.5c0-6.7-2.9-10.4-7.7-10.4c-4.9,0-8,3.9-8,10.4v2.5
		c0,6.6,3.2,10.6,8.1,10.6C244.2,223.6,247.3,219.9,247.3,213z"/>
	<path class="st3" d="M288.2,230.5v-40h-13.6v-7.9h36.8v7.9h-13.6v40H288.2z"/>
	<path class="st3" d="M343.9,210.4v2.7c0,10.9-6,18.1-17.1,18.1s-17.1-7.2-17.1-18v-2.7c0-10.3,6.1-17.9,17.1-17.9
		C337.8,192.5,343.9,200.1,343.9,210.4z M319.1,210.4v2.9c0,5.9,2.3,10.7,7.7,10.7c5.4,0,7.7-4.8,7.7-10.7v-2.9
		c0-6.1-2.4-10.7-7.7-10.7S319.1,204.3,319.1,210.4z"/>
	<path class="st3" d="M156.3,267.7c0,7.9-5.1,12-8.8,13.5l9.7,19.3h-10.6l-8.4-17.9h-8.5v17.9h-9.4v-48h19.2
		C150.9,252.5,156.3,259.2,156.3,267.7z M137.9,275.5c5.3,0,8.5-2.6,8.5-7.6c0-5.3-3.5-7.9-8.4-7.9h-8.4v15.5H137.9z"/>
	<path class="st3" d="M162.6,283.3v-3.4c0-10.9,6.7-17.4,16.5-17.4c10.2,0,16.5,6.9,16.5,17.6v3.7h-23.9v1c0,5.7,3.2,9.2,7.9,9.2
		c3.7,0,6.3-1.8,7.1-4.9h8.6c-0.9,6-5.7,11.9-15.7,11.9C169.3,301.2,162.6,294.8,162.6,283.3z M186.6,278L186.6,278
		c0-4.9-2.9-8.5-7.4-8.5c-4.5,0-7.5,3.7-7.5,8.5v0.1H186.6z"/>
	<path class="st3" d="M216.8,262.5c8.9,0,14.3,4.5,14.3,11.4h-8.2c-0.2-2.4-1.8-5-6.3-5c-3.6,0-5.9,1.7-5.9,4.4
		c0,3.7,5.4,4.3,9.6,5.1c6.9,1.2,11.9,3.6,11.9,10.5c0,7.7-6,12.2-15.9,12.2c-9.6,0-15.2-4.5-15.2-11.1h9c0.4,2.7,2.8,4.6,6.8,4.6
		c4.4,0,6.4-2.1,6.4-4.5c0-3.6-4.5-4.1-9.2-5.1c-6.7-1.4-12.1-3.9-12.1-10.8C201.9,266,209,262.5,216.8,262.5z"/>
	<path class="st3" d="M272,300.5h-9V295h-0.4c-1.2,2.9-4.6,6-10.8,6c-7.6,0-12.8-4.4-12.8-13.2v-24.6h9.2v22.2
		c0,6.2,3.5,7.8,7.1,7.8c4.1,0,7.3-2.7,7.3-7.9v-22.1h9.3V300.5z"/>
	<path class="st3" d="M281.2,263.2h9v5.3h0.5c1-2.7,4.2-5.9,9.8-5.9c5.7,0,9.2,2.6,10.4,6.4h0.4c1.2-3.2,5.1-6.4,11.4-6.4
		c7.7,0,12.2,5,12.2,12.4v25.5h-9.2v-22.9c0-4.7-2.6-7.2-6.5-7.2c-4.1,0-6.6,2.8-6.6,7.6v22.6h-8.9v-22.6c0-5.4-2.8-7.6-6.5-7.6
		c-3.6,0-6.6,2.4-6.6,7.5v22.6h-9.2V263.2z"/>
	<path class="st3" d="M342.3,283.3v-3.4c0-10.9,6.7-17.4,16.5-17.4c10.2,0,16.5,6.9,16.5,17.6v3.7h-23.9v1c0,5.7,3.2,9.2,7.9,9.2
		c3.7,0,6.3-1.8,7.1-4.9h8.6c-0.9,6-5.7,11.9-15.7,11.9C349,301.2,342.3,294.8,342.3,283.3z M366.3,278L366.3,278
		c0-4.9-2.9-8.5-7.4-8.5c-4.5,0-7.5,3.7-7.5,8.5v0.1H366.3z"/>
</g>
</svg>
